<svg xmlns="http://www.w3.org/2000/svg" xmlns:xlink="http://www.w3.org/1999/xlink" width="62" height="62" viewBox="0 0 62 62">
  <defs>
    <filter id="Ellipse_4" x="0" y="0" width="62" height="62" filterUnits="userSpaceOnUse">
      <feOffset input="SourceAlpha"/>
      <feGaussianBlur stdDeviation="5" result="blur"/>
      <feFlood flood-color="red" flood-opacity="0.902"/>
      <feComposite operator="in" in2="blur"/>
      <feComposite in="SourceGraphic"/>
    </filter>
    <filter id="Path_18" x="14" y="7" width="34.272" height="43.528" filterUnits="userSpaceOnUse">
      <feOffset input="SourceAlpha"/>
      <feGaussianBlur stdDeviation="5" result="blur-2"/>
      <feFlood flood-color="red" flood-opacity="0.902"/>
      <feComposite operator="in" in2="blur-2"/>
      <feComposite in="SourceGraphic"/>
    </filter>
    <filter id="Path_19" x="14" y="21.952" width="34.272" height="33.56" filterUnits="userSpaceOnUse">
      <feOffset input="SourceAlpha"/>
      <feGaussianBlur stdDeviation="5" result="blur-3"/>
      <feFlood flood-color="red" flood-opacity="0.902"/>
      <feComposite operator="in" in2="blur-3"/>
      <feComposite in="SourceGraphic"/>
    </filter>
  </defs>
  <g id="Group_111" data-name="Group 111" transform="translate(-540 -300)">
    <g transform="matrix(1, 0, 0, 1, 540, 300)" filter="url(#Ellipse_4)">
      <g id="Ellipse_4-2" data-name="Ellipse 4" transform="translate(15 15)" fill="none" stroke="red" stroke-width="3">
        <circle cx="16" cy="16" r="16" stroke="none"/>
        <circle cx="16" cy="16" r="14.5" fill="none"/>
      </g>
    </g>
    <g id="Group_109" data-name="Group 109" transform="translate(384 151)">
      <g transform="matrix(1, 0, 0, 1, 156, 149)" filter="url(#Path_18)">
        <path id="Path_18-2" data-name="Path 18" d="M-.288,0H2.56a.712.712,0,0,1,.712.712l-.712,12.1a.712.712,0,0,1-.712.712H.424a.712.712,0,0,1-.712-.712L-1,.712A.712.712,0,0,1-.288,0Z" transform="translate(30 22)" fill="red"/>
      </g>
      <g transform="matrix(1, 0, 0, 1, 156, 149)" filter="url(#Path_19)">
        <path id="Path_19-2" data-name="Path 19" d="M.712,0H3.56c.393,0,.712.084.712.187L3.56,3.373c0,.1-.319.187-.712.187H1.424c-.393,0-.712-.084-.712-.187L0,.187C0,.084.319,0,.712,0Z" transform="translate(33.27 40.51) rotate(180)" fill="red"/>
      </g>
    </g>
  </g>
</svg>
